<svg id="Capa_1" data-name="Capa 1" xmlns="http://www.w3.org/2000/svg" viewBox="0 0 26.115 26.854"><defs><style>.cls-1{fill:#004193;}</style></defs><title>icono_busqueda</title><path class="cls-1" d="M21.744,27.322H5.557A4.97,4.97,0,0,1,.593,22.358V5.432A4.97,4.97,0,0,1,5.557.468H21.744a4.97,4.97,0,0,1,4.964,4.964V22.358A4.97,4.97,0,0,1,21.744,27.322ZM5.557,1.468A3.968,3.968,0,0,0,1.593,5.432V22.358a3.969,3.969,0,0,0,3.964,3.964H21.744a3.969,3.969,0,0,0,3.964-3.964V5.432a3.968,3.968,0,0,0-3.964-3.964Z" transform="translate(-0.593 -0.468)"/><path class="cls-1" d="M11.637,18.825a6.942,6.942,0,1,1,6.984-6.876A6.924,6.924,0,0,1,11.637,18.825ZM6.178,11.959a5.5,5.5,0,0,0,10.992-.07,5.5,5.5,0,1,0-10.992.07Z" transform="translate(-0.593 -0.468)"/><path class="cls-1" d="M21.345,22.849a1.614,1.614,0,0,1-1.3-.719c-.992-1.2-1.973-2.411-3-3.587-.4-.462-.469-.777.007-1.256.458-.461.748-.476,1.232-.048,1.236,1.091,2.523,2.124,3.785,3.186a1.337,1.337,0,0,1,.411,1.612A1.283,1.283,0,0,1,21.345,22.849Z" transform="translate(-0.593 -0.468)"/></svg>